<mxfile host="app.diagrams.net" modified="2023-07-08T13:08:32.041Z" agent="Mozilla/5.0 (Macintosh; Intel Mac OS X 10_15_7) AppleWebKit/605.1.15 (KHTML, like Gecko) Version/16.5.1 Safari/605.1.15" etag="x0k-6wc2CHs9PM__YJmw" version="21.6.1" type="device">
  <diagram name="Page-1" id="FN1AEwzU926qCBKaNZdS">
    <mxGraphModel dx="747" dy="1329" grid="1" gridSize="5" guides="1" tooltips="1" connect="1" arrows="1" fold="1" page="0" pageScale="1" pageWidth="850" pageHeight="1100" math="1" shadow="0">
      <root>
        <mxCell id="0" />
        <mxCell id="1" parent="0" />
        <mxCell id="N9IYDUS_Y2D4-Y9sQVe1-56" value="" style="rounded=0;whiteSpace=wrap;html=1;fillColor=none;strokeWidth=2;" parent="1" vertex="1">
          <mxGeometry x="45.5" y="390.5" width="505" height="200" as="geometry" />
        </mxCell>
        <mxCell id="N9IYDUS_Y2D4-Y9sQVe1-51" value="" style="rounded=0;whiteSpace=wrap;html=1;fillColor=none;strokeWidth=2;" parent="1" vertex="1">
          <mxGeometry x="237.5" y="100.5" width="130" height="260" as="geometry" />
        </mxCell>
        <mxCell id="N9IYDUS_Y2D4-Y9sQVe1-57" value="&lt;b&gt;UE Relocation Table&lt;/b&gt;" style="text;html=1;strokeColor=none;fillColor=none;align=center;verticalAlign=middle;whiteSpace=wrap;rounded=0;fontFamily=LMRoman10-Regular;fontSize=16;fontColor=default;" parent="1" vertex="1">
          <mxGeometry x="222" y="70" width="160" height="30" as="geometry" />
        </mxCell>
        <mxCell id="N9IYDUS_Y2D4-Y9sQVe1-1" value="&lt;font style=&quot;font-size: 16px;&quot; face=&quot;LMRoman10-Regular&quot;&gt;&lt;b&gt;Fixup Root 1&lt;/b&gt;&lt;/font&gt;" style="rounded=0;whiteSpace=wrap;html=1;" parent="1" vertex="1">
          <mxGeometry x="247" y="110" width="100" height="30" as="geometry" />
        </mxCell>
        <mxCell id="N9IYDUS_Y2D4-Y9sQVe1-2" style="edgeStyle=orthogonalEdgeStyle;rounded=0;orthogonalLoop=1;jettySize=auto;html=1;exitX=0;exitY=0.5;exitDx=0;exitDy=0;endArrow=none;endFill=0;" parent="1" source="N9IYDUS_Y2D4-Y9sQVe1-4" target="N9IYDUS_Y2D4-Y9sQVe1-5" edge="1">
          <mxGeometry relative="1" as="geometry">
            <mxPoint x="350" y="106" as="targetPoint" />
            <Array as="points">
              <mxPoint x="70" y="155" />
            </Array>
          </mxGeometry>
        </mxCell>
        <mxCell id="N9IYDUS_Y2D4-Y9sQVe1-3" style="edgeStyle=orthogonalEdgeStyle;rounded=0;orthogonalLoop=1;jettySize=auto;html=1;exitX=0;exitY=0.5;exitDx=0;exitDy=0;entryX=0;entryY=0;entryDx=0;entryDy=0;" parent="1" source="N9IYDUS_Y2D4-Y9sQVe1-4" target="N9IYDUS_Y2D4-Y9sQVe1-17" edge="1">
          <mxGeometry relative="1" as="geometry">
            <Array as="points">
              <mxPoint x="70" y="155" />
              <mxPoint x="70" y="440" />
            </Array>
          </mxGeometry>
        </mxCell>
        <mxCell id="N9IYDUS_Y2D4-Y9sQVe1-4" value="&lt;font style=&quot;font-size: 16px;&quot; face=&quot;LMRoman10-Regular&quot;&gt;FirstOffset&lt;/font&gt;" style="rounded=0;whiteSpace=wrap;html=1;" parent="1" vertex="1">
          <mxGeometry x="247" y="140" width="100" height="30" as="geometry" />
        </mxCell>
        <mxCell id="N9IYDUS_Y2D4-Y9sQVe1-5" value="&lt;span&gt;$$0$$&lt;/span&gt;" style="text;html=1;strokeColor=none;fillColor=none;align=center;verticalAlign=middle;whiteSpace=wrap;rounded=0;fontFamily=LMRoman10-Regular;fontSize=16;fontColor=default;fontStyle=0" parent="1" vertex="1">
          <mxGeometry x="63" y="75" width="15" height="20" as="geometry" />
        </mxCell>
        <mxCell id="N9IYDUS_Y2D4-Y9sQVe1-6" value="&lt;font face=&quot;LMRoman10-Regular&quot;&gt;&lt;font size=&quot;3&quot;&gt;&lt;b&gt;Head Fixup&amp;nbsp;1&lt;/b&gt;&lt;/font&gt;&lt;/font&gt;" style="rounded=0;whiteSpace=wrap;html=1;" parent="1" vertex="1">
          <mxGeometry x="257.5" y="170" width="100" height="30" as="geometry" />
        </mxCell>
        <mxCell id="N9IYDUS_Y2D4-Y9sQVe1-7" style="edgeStyle=orthogonalEdgeStyle;rounded=0;orthogonalLoop=1;jettySize=auto;html=1;exitX=0;exitY=0.5;exitDx=0;exitDy=0;entryX=0;entryY=0;entryDx=0;entryDy=0;" parent="1" source="N9IYDUS_Y2D4-Y9sQVe1-8" target="N9IYDUS_Y2D4-Y9sQVe1-38" edge="1">
          <mxGeometry relative="1" as="geometry">
            <mxPoint x="70" y="500" as="targetPoint" />
            <Array as="points">
              <mxPoint x="55" y="215" />
              <mxPoint x="55" y="550" />
            </Array>
          </mxGeometry>
        </mxCell>
        <mxCell id="N9IYDUS_Y2D4-Y9sQVe1-8" value="&lt;font style=&quot;font-size: 16px;&quot; face=&quot;LMRoman10-Regular&quot;&gt;NOffset&lt;/font&gt;" style="rounded=0;whiteSpace=wrap;html=1;" parent="1" vertex="1">
          <mxGeometry x="257.5" y="200" width="60" height="30" as="geometry" />
        </mxCell>
        <mxCell id="N9IYDUS_Y2D4-Y9sQVe1-10" value="&lt;font style=&quot;font-size: 16px;&quot; face=&quot;LMRoman10-Regular&quot;&gt;Type&lt;/font&gt;" style="rounded=0;whiteSpace=wrap;html=1;" parent="1" vertex="1">
          <mxGeometry x="317.5" y="200" width="40" height="30" as="geometry" />
        </mxCell>
        <mxCell id="N9IYDUS_Y2D4-Y9sQVe1-11" value="&lt;span&gt;+&lt;/span&gt;" style="text;html=1;strokeColor=none;fillColor=none;align=center;verticalAlign=middle;whiteSpace=wrap;rounded=0;fontFamily=LMRoman10-Regular;fontSize=16;fontColor=default;fontStyle=0" parent="1" vertex="1">
          <mxGeometry x="55" y="146.5" width="14" height="15" as="geometry" />
        </mxCell>
        <mxCell id="N9IYDUS_Y2D4-Y9sQVe1-12" value="&lt;font face=&quot;LMRoman10-Regular&quot;&gt;&lt;font size=&quot;3&quot;&gt;&lt;b&gt;Chained Fixup&amp;nbsp;1&lt;/b&gt;&lt;/font&gt;&lt;/font&gt;" style="rounded=0;whiteSpace=wrap;html=1;strokeWidth=1;" parent="1" vertex="1">
          <mxGeometry x="90" y="410" width="120" height="30" as="geometry" />
        </mxCell>
        <mxCell id="N9IYDUS_Y2D4-Y9sQVe1-13" style="edgeStyle=orthogonalEdgeStyle;rounded=0;orthogonalLoop=1;jettySize=auto;html=1;exitX=1;exitY=0.5;exitDx=0;exitDy=0;entryX=0;entryY=0;entryDx=0;entryDy=0;" parent="1" source="N9IYDUS_Y2D4-Y9sQVe1-15" target="N9IYDUS_Y2D4-Y9sQVe1-23" edge="1">
          <mxGeometry relative="1" as="geometry">
            <Array as="points">
              <mxPoint x="220" y="455" />
              <mxPoint x="220" y="440" />
            </Array>
          </mxGeometry>
        </mxCell>
        <mxCell id="N9IYDUS_Y2D4-Y9sQVe1-14" style="edgeStyle=orthogonalEdgeStyle;rounded=0;orthogonalLoop=1;jettySize=auto;html=1;exitX=1;exitY=0.5;exitDx=0;exitDy=0;endArrow=none;endFill=0;" parent="1" source="N9IYDUS_Y2D4-Y9sQVe1-15" edge="1">
          <mxGeometry relative="1" as="geometry">
            <mxPoint x="70" y="440" as="targetPoint" />
            <Array as="points">
              <mxPoint x="220" y="455" />
              <mxPoint x="220" y="500" />
              <mxPoint x="70" y="500" />
              <mxPoint x="70" y="440" />
            </Array>
          </mxGeometry>
        </mxCell>
        <mxCell id="N9IYDUS_Y2D4-Y9sQVe1-15" value="&lt;font style=&quot;font-size: 16px;&quot; face=&quot;LMRoman10-Regular&quot;&gt;NOff&lt;/font&gt;" style="rounded=0;whiteSpace=wrap;html=1;" parent="1" vertex="1">
          <mxGeometry x="170" y="440" width="40" height="30" as="geometry" />
        </mxCell>
        <mxCell id="N9IYDUS_Y2D4-Y9sQVe1-16" value="&lt;font style=&quot;font-size: 16px;&quot; face=&quot;LMRoman10-Regular&quot;&gt;NType&lt;/font&gt;" style="rounded=0;whiteSpace=wrap;html=1;" parent="1" vertex="1">
          <mxGeometry x="120" y="440" width="50" height="30" as="geometry" />
        </mxCell>
        <mxCell id="N9IYDUS_Y2D4-Y9sQVe1-17" value="&lt;font style=&quot;font-size: 16px;&quot; face=&quot;LMRoman10-Regular&quot;&gt;Val&lt;/font&gt;" style="rounded=0;whiteSpace=wrap;html=1;" parent="1" vertex="1">
          <mxGeometry x="90" y="440" width="30" height="30" as="geometry" />
        </mxCell>
        <mxCell id="N9IYDUS_Y2D4-Y9sQVe1-18" value="&lt;font face=&quot;LMRoman10-Regular&quot;&gt;&lt;font size=&quot;3&quot;&gt;&lt;b&gt;Chained Fixup 2&lt;/b&gt;&lt;/font&gt;&lt;/font&gt;" style="rounded=0;whiteSpace=wrap;html=1;strokeWidth=1;" parent="1" vertex="1">
          <mxGeometry x="250.5" y="410" width="120" height="30" as="geometry" />
        </mxCell>
        <mxCell id="N9IYDUS_Y2D4-Y9sQVe1-19" style="edgeStyle=orthogonalEdgeStyle;rounded=0;orthogonalLoop=1;jettySize=auto;html=1;exitX=1;exitY=0.5;exitDx=0;exitDy=0;entryX=0;entryY=0;entryDx=0;entryDy=0;" parent="1" source="N9IYDUS_Y2D4-Y9sQVe1-21" target="N9IYDUS_Y2D4-Y9sQVe1-28" edge="1">
          <mxGeometry relative="1" as="geometry">
            <Array as="points">
              <mxPoint x="380" y="455" />
              <mxPoint x="380" y="440" />
            </Array>
          </mxGeometry>
        </mxCell>
        <mxCell id="N9IYDUS_Y2D4-Y9sQVe1-20" style="edgeStyle=orthogonalEdgeStyle;rounded=0;orthogonalLoop=1;jettySize=auto;html=1;exitX=1;exitY=0.5;exitDx=0;exitDy=0;endArrow=none;endFill=0;" parent="1" source="N9IYDUS_Y2D4-Y9sQVe1-21" edge="1">
          <mxGeometry relative="1" as="geometry">
            <mxPoint x="230" y="440" as="targetPoint" />
            <Array as="points">
              <mxPoint x="380" y="455" />
              <mxPoint x="380" y="400" />
              <mxPoint x="220" y="400" />
              <mxPoint x="220" y="440" />
            </Array>
          </mxGeometry>
        </mxCell>
        <mxCell id="N9IYDUS_Y2D4-Y9sQVe1-21" value="&lt;font style=&quot;font-size: 16px;&quot; face=&quot;LMRoman10-Regular&quot;&gt;NOff&lt;/font&gt;" style="rounded=0;whiteSpace=wrap;html=1;" parent="1" vertex="1">
          <mxGeometry x="330.5" y="440" width="40" height="30" as="geometry" />
        </mxCell>
        <mxCell id="N9IYDUS_Y2D4-Y9sQVe1-22" value="&lt;font style=&quot;font-size: 16px;&quot; face=&quot;LMRoman10-Regular&quot;&gt;NType&lt;/font&gt;" style="rounded=0;whiteSpace=wrap;html=1;" parent="1" vertex="1">
          <mxGeometry x="280.5" y="440" width="50" height="30" as="geometry" />
        </mxCell>
        <mxCell id="N9IYDUS_Y2D4-Y9sQVe1-23" value="&lt;font style=&quot;font-size: 16px;&quot; face=&quot;LMRoman10-Regular&quot;&gt;Val&lt;/font&gt;" style="rounded=0;whiteSpace=wrap;html=1;" parent="1" vertex="1">
          <mxGeometry x="250.5" y="440" width="30" height="30" as="geometry" />
        </mxCell>
        <mxCell id="N9IYDUS_Y2D4-Y9sQVe1-24" value="&lt;span&gt;$$+_{S_1}$$&lt;br&gt;&lt;/span&gt;" style="text;html=1;strokeColor=none;fillColor=none;align=center;verticalAlign=middle;whiteSpace=wrap;rounded=0;fontFamily=LMRoman10-Regular;fontSize=16;fontColor=default;fontStyle=0" parent="1" vertex="1">
          <mxGeometry x="220.5" y="448.5" width="30" height="30" as="geometry" />
        </mxCell>
        <mxCell id="N9IYDUS_Y2D4-Y9sQVe1-25" value="&lt;font face=&quot;LMRoman10-Regular&quot;&gt;&lt;font size=&quot;3&quot;&gt;&lt;b&gt;Chained Fixup 3&lt;/b&gt;&lt;/font&gt;&lt;/font&gt;" style="rounded=0;whiteSpace=wrap;html=1;strokeWidth=1;" parent="1" vertex="1">
          <mxGeometry x="420" y="410" width="120" height="30" as="geometry" />
        </mxCell>
        <mxCell id="N9IYDUS_Y2D4-Y9sQVe1-26" value="&lt;font style=&quot;font-size: 16px;&quot; face=&quot;LMRoman10-Regular&quot;&gt;FFF&lt;/font&gt;" style="rounded=0;whiteSpace=wrap;html=1;" parent="1" vertex="1">
          <mxGeometry x="500" y="440" width="40" height="30" as="geometry" />
        </mxCell>
        <mxCell id="N9IYDUS_Y2D4-Y9sQVe1-27" value="&lt;font style=&quot;font-size: 16px;&quot; face=&quot;LMRoman10-Regular&quot;&gt;$$0$$&lt;/font&gt;" style="rounded=0;whiteSpace=wrap;html=1;" parent="1" vertex="1">
          <mxGeometry x="450" y="440" width="50" height="30" as="geometry" />
        </mxCell>
        <mxCell id="N9IYDUS_Y2D4-Y9sQVe1-28" value="&lt;font style=&quot;font-size: 16px;&quot; face=&quot;LMRoman10-Regular&quot;&gt;Val&lt;/font&gt;" style="rounded=0;whiteSpace=wrap;html=1;" parent="1" vertex="1">
          <mxGeometry x="420" y="440" width="30" height="30" as="geometry" />
        </mxCell>
        <mxCell id="N9IYDUS_Y2D4-Y9sQVe1-29" value="&lt;span&gt;$$+_{s_2}$$&lt;/span&gt;" style="text;html=1;strokeColor=none;fillColor=none;align=center;verticalAlign=middle;whiteSpace=wrap;rounded=0;fontFamily=LMRoman10-Regular;fontSize=16;fontColor=default;fontStyle=0" parent="1" vertex="1">
          <mxGeometry x="382" y="412" width="30" height="30" as="geometry" />
        </mxCell>
        <mxCell id="N9IYDUS_Y2D4-Y9sQVe1-30" value="&lt;font face=&quot;LMRoman10-Regular&quot;&gt;&lt;font size=&quot;3&quot;&gt;&lt;b&gt;Head Fixup 2&lt;/b&gt;&lt;/font&gt;&lt;/font&gt;" style="rounded=0;whiteSpace=wrap;html=1;" parent="1" vertex="1">
          <mxGeometry x="257.5" y="230" width="100" height="30" as="geometry" />
        </mxCell>
        <mxCell id="N9IYDUS_Y2D4-Y9sQVe1-31" value="&lt;font style=&quot;font-size: 16px;&quot; face=&quot;LMRoman10-Regular&quot;&gt;FFF&lt;/font&gt;" style="rounded=0;whiteSpace=wrap;html=1;" parent="1" vertex="1">
          <mxGeometry x="257.5" y="260" width="60" height="30" as="geometry" />
        </mxCell>
        <mxCell id="N9IYDUS_Y2D4-Y9sQVe1-33" value="&lt;font style=&quot;font-size: 16px;&quot; face=&quot;LMRoman10-Regular&quot;&gt;Type&lt;/font&gt;" style="rounded=0;whiteSpace=wrap;html=1;" parent="1" vertex="1">
          <mxGeometry x="317.5" y="260" width="40" height="30" as="geometry" />
        </mxCell>
        <mxCell id="N9IYDUS_Y2D4-Y9sQVe1-34" value="" style="verticalLabelPosition=bottom;shadow=0;dashed=0;align=center;html=1;verticalAlign=top;strokeWidth=1;shape=mxgraph.mockup.markup.curlyBrace;whiteSpace=wrap;strokeColor=#000000;direction=west;" parent="1" vertex="1">
          <mxGeometry x="90" y="472" width="120" height="10" as="geometry" />
        </mxCell>
        <mxCell id="N9IYDUS_Y2D4-Y9sQVe1-35" value="&lt;span&gt;$$s_1$$&lt;br&gt;&lt;/span&gt;" style="text;html=1;strokeColor=none;fillColor=none;align=center;verticalAlign=middle;whiteSpace=wrap;rounded=0;fontFamily=LMRoman10-Regular;fontSize=16;fontColor=default;fontStyle=0" parent="1" vertex="1">
          <mxGeometry x="142.5" y="490" width="15" height="20" as="geometry" />
        </mxCell>
        <mxCell id="N9IYDUS_Y2D4-Y9sQVe1-36" value="&lt;font face=&quot;LMRoman10-Regular&quot;&gt;&lt;font size=&quot;3&quot;&gt;&lt;b&gt;Fixup Target 4&lt;/b&gt;&lt;/font&gt;&lt;/font&gt;" style="rounded=0;whiteSpace=wrap;html=1;strokeWidth=1;" parent="1" vertex="1">
          <mxGeometry x="90" y="520" width="120" height="30" as="geometry" />
        </mxCell>
        <mxCell id="N9IYDUS_Y2D4-Y9sQVe1-37" style="edgeStyle=orthogonalEdgeStyle;rounded=0;orthogonalLoop=1;jettySize=auto;html=1;exitX=0;exitY=0;exitDx=0;exitDy=0;endArrow=none;endFill=0;" parent="1" source="N9IYDUS_Y2D4-Y9sQVe1-38" edge="1">
          <mxGeometry relative="1" as="geometry">
            <mxPoint x="440" y="440" as="targetPoint" />
            <Array as="points">
              <mxPoint x="55" y="550" />
              <mxPoint x="55" y="510" />
              <mxPoint x="400" y="510" />
              <mxPoint x="400" y="440" />
            </Array>
          </mxGeometry>
        </mxCell>
        <mxCell id="N9IYDUS_Y2D4-Y9sQVe1-38" value="&lt;font style=&quot;font-size: 16px;&quot; face=&quot;LMRoman10-Regular&quot;&gt;Value&lt;/font&gt;" style="rounded=0;whiteSpace=wrap;html=1;" parent="1" vertex="1">
          <mxGeometry x="90" y="550" width="120" height="30" as="geometry" />
        </mxCell>
        <mxCell id="N9IYDUS_Y2D4-Y9sQVe1-39" value="&lt;font style=&quot;font-size: 16px;&quot; face=&quot;LMRoman10-Regular&quot;&gt;&lt;b&gt;Fixup Root 2&lt;/b&gt;&lt;/font&gt;" style="rounded=0;whiteSpace=wrap;html=1;" parent="1" vertex="1">
          <mxGeometry x="247" y="290" width="100" height="30" as="geometry" />
        </mxCell>
        <mxCell id="N9IYDUS_Y2D4-Y9sQVe1-59" style="edgeStyle=orthogonalEdgeStyle;rounded=0;orthogonalLoop=1;jettySize=auto;html=1;exitX=0;exitY=0.5;exitDx=0;exitDy=0;entryX=1;entryY=0.5;entryDx=0;entryDy=0;endArrow=none;endFill=0;" parent="1" source="N9IYDUS_Y2D4-Y9sQVe1-40" target="N9IYDUS_Y2D4-Y9sQVe1-49" edge="1">
          <mxGeometry relative="1" as="geometry" />
        </mxCell>
        <mxCell id="N9IYDUS_Y2D4-Y9sQVe1-40" value="&lt;font style=&quot;font-size: 16px;&quot; face=&quot;LMRoman10-Regular&quot;&gt;FirstOffset&lt;/font&gt;" style="rounded=0;whiteSpace=wrap;html=1;" parent="1" vertex="1">
          <mxGeometry x="247" y="320" width="100" height="30" as="geometry" />
        </mxCell>
        <mxCell id="N9IYDUS_Y2D4-Y9sQVe1-41" value="" style="verticalLabelPosition=bottom;shadow=0;dashed=0;align=center;html=1;verticalAlign=top;strokeWidth=1;shape=mxgraph.mockup.markup.curlyBrace;whiteSpace=wrap;strokeColor=#000000;direction=west;" parent="1" vertex="1">
          <mxGeometry x="250.5" y="472" width="120" height="10" as="geometry" />
        </mxCell>
        <mxCell id="N9IYDUS_Y2D4-Y9sQVe1-42" value="&lt;span&gt;$$s_2$$&lt;br&gt;&lt;/span&gt;" style="text;html=1;strokeColor=none;fillColor=none;align=center;verticalAlign=middle;whiteSpace=wrap;rounded=0;fontFamily=LMRoman10-Regular;fontSize=16;fontColor=default;fontStyle=0" parent="1" vertex="1">
          <mxGeometry x="303" y="490" width="15" height="20" as="geometry" />
        </mxCell>
        <mxCell id="N9IYDUS_Y2D4-Y9sQVe1-43" value="" style="verticalLabelPosition=bottom;shadow=0;dashed=0;align=center;html=1;verticalAlign=top;strokeWidth=1;shape=mxgraph.mockup.markup.curlyBrace;whiteSpace=wrap;strokeColor=#000000;direction=west;" parent="1" vertex="1">
          <mxGeometry x="420" y="472" width="120" height="10" as="geometry" />
        </mxCell>
        <mxCell id="N9IYDUS_Y2D4-Y9sQVe1-44" value="&lt;span&gt;$$s_3$$&lt;br&gt;&lt;/span&gt;" style="text;html=1;strokeColor=none;fillColor=none;align=center;verticalAlign=middle;whiteSpace=wrap;rounded=0;fontFamily=LMRoman10-Regular;fontSize=16;fontColor=default;fontStyle=0" parent="1" vertex="1">
          <mxGeometry x="472.5" y="490" width="15" height="20" as="geometry" />
        </mxCell>
        <mxCell id="N9IYDUS_Y2D4-Y9sQVe1-45" value="&lt;span&gt;$$+_{s_3}$$&lt;/span&gt;" style="text;html=1;strokeColor=none;fillColor=none;align=center;verticalAlign=middle;whiteSpace=wrap;rounded=0;fontFamily=LMRoman10-Regular;fontSize=16;fontColor=default;fontStyle=0" parent="1" vertex="1">
          <mxGeometry x="55.5" y="505" width="30" height="30" as="geometry" />
        </mxCell>
        <mxCell id="N9IYDUS_Y2D4-Y9sQVe1-46" value="&lt;font style=&quot;font-size: 32px;&quot;&gt;[...]&lt;/font&gt;" style="text;html=1;strokeColor=none;fillColor=none;align=center;verticalAlign=middle;whiteSpace=wrap;rounded=0;fontFamily=LMRoman10-Regular;fontSize=16;fontColor=default;" parent="1" vertex="1">
          <mxGeometry x="220.5" y="530" width="60" height="30" as="geometry" />
        </mxCell>
        <mxCell id="N9IYDUS_Y2D4-Y9sQVe1-49" value="&lt;font style=&quot;font-size: 16px;&quot;&gt;[...]&lt;/font&gt;" style="text;html=1;strokeColor=none;fillColor=none;align=center;verticalAlign=middle;whiteSpace=wrap;rounded=0;fontFamily=LMRoman10-Regular;fontSize=16;fontColor=default;" parent="1" vertex="1">
          <mxGeometry x="90" y="320" width="24.5" height="30" as="geometry" />
        </mxCell>
        <mxCell id="N9IYDUS_Y2D4-Y9sQVe1-58" value="&lt;b&gt;UE Segment Data&lt;/b&gt;" style="text;html=1;strokeColor=none;fillColor=none;align=center;verticalAlign=middle;whiteSpace=wrap;rounded=0;fontFamily=LMRoman10-Regular;fontSize=16;fontColor=default;" parent="1" vertex="1">
          <mxGeometry x="45" y="360" width="505.5" height="30" as="geometry" />
        </mxCell>
        <mxCell id="N9IYDUS_Y2D4-Y9sQVe1-60" value="" style="rounded=0;whiteSpace=wrap;html=1;fillColor=none;strokeWidth=2;" parent="1" vertex="1">
          <mxGeometry x="247.5" y="110.5" width="100" height="60" as="geometry" />
        </mxCell>
        <mxCell id="N9IYDUS_Y2D4-Y9sQVe1-61" value="" style="rounded=0;whiteSpace=wrap;html=1;fillColor=none;strokeWidth=2;" parent="1" vertex="1">
          <mxGeometry x="247.5" y="290.5" width="100" height="60" as="geometry" />
        </mxCell>
      </root>
    </mxGraphModel>
  </diagram>
</mxfile>
